<svg xmlns="http://www.w3.org/2000/svg" viewBox="0 0 1280 1012"><defs><style>.cls-1{fill:#8159ff;opacity:0.18;}</style></defs><g id="Layer_2" data-name="Layer 2"><g id="Layer_1-2" data-name="Layer 1"><path class="cls-1" d="M0,977.35l4,6.34a303.17,303.17,0,0,0,72,22c27.57,4.79,65.11,11.32,102,0C226.34,990.9,222.74,961,305,898.54c51.51-39.12,74.38-43.7,87-45.07,25.77-2.8,37.46,4.69,86,17,63.75,16.2,95.63,24.3,121,20,54.44-9.17,105.9-57.13,124-108.19,2.74-7.73,9.16-39.55,22-103.17,5.55-27.53,8-40.94,19-56.1C786,592.76,820.66,585,830,583c7.23-1.51,59.09-11.82,83,15,30.2,33.91-21.35,85.45,3,150.26,16,42.47,61.25,82,106,79.13,52.64-3.32,92.68-64.45,103-114.19,14.4-69.38-30.22-110.76-2-147.26,16.31-21.1,49.79-31.27,76-28.05,32.94,4.05,46.53,28.28,65,22,5.21-1.76,11-6,16-15.79V0H0Z"/></g></g></svg>