<svg xmlns="http://www.w3.org/2000/svg" xmlns:xlink="http://www.w3.org/1999/xlink" viewBox="0 0 1280 984.33"><defs><style>.cls-1{fill:url(#linear-gradient);}</style><linearGradient id="linear-gradient" x1="709.64" y1="877.81" x2="538.12" y2="-94.89" gradientUnits="userSpaceOnUse"><stop offset="0.17" stop-color="#8159ff"/><stop offset="0.32" stop-color="#8161ff" stop-opacity="0.99"/><stop offset="0.54" stop-color="#8378ff" stop-opacity="0.96"/><stop offset="0.78" stop-color="#859dff" stop-opacity="0.92"/><stop offset="0.88" stop-color="#86afff" stop-opacity="0.9"/></linearGradient></defs><g id="Layer_2" data-name="Layer 2"><g id="Layer_1-2" data-name="Layer 1"><path class="cls-1" d="M0,0V965.75L30,977c29.48,7.25,72.5,12.93,118-2,69.63-22.87,77.29-71.77,140-85.52,70.49-15.46,103.22,37,141,13.08,42.83-27.15,7.14-98.64,65-171,9.83-12.3,35.49-44.4,77-53.33,29-6.22,57.7,3.82,114,24.15,71.61,25.86,75.6,37.36,109,39.24,53,3,93.76-23.12,106-31.19,13.24-8.73,66.88-46.53,80-110.67,11.57-56.57-18.81-82.64,3-120.74,14.38-25.13,46.84-47.41,67-39.24,39.32,15.93-2,133.9,51,168,28.77,18.52,77.45,7.28,89-15.09,6.57-12.72-2.61-21.81-13-65.4-7.14-30-19.66-82.49-1-94.57,5.45-3.53,12.91-3.18,18-1,16.29,7,9,32.8,27,57.35,8.2,11.17,24.88,26.45,40,24.15,7.61-1.16,13.88-6.64,19-13.92V0Z"/></g></g></svg>