<svg xmlns="http://www.w3.org/2000/svg" viewBox="0 0 668.62 446.84"><defs><style>.cls-1{fill:#999;}.cls-2{fill:#ccc;}.cls-3{fill:#b3b3b3;}.cls-4{fill:gray;}.cls-5{fill:#496a72;}.cls-6{fill:#738b93;}.cls-7{fill:#b5e4f4;}.cls-8{fill:#9cc7d3;}.cls-9{fill:#ef7954;}.cls-10{fill:#244d54;}.cls-11{fill:#638591;}.cls-12{fill:#99b5c4;}.cls-13{fill:#f2f2f2;opacity:0.49;isolation:isolate;}</style></defs><g id="Layer_2" data-name="Layer 2"><g id="Layer_1-2" data-name="Layer 1"><rect class="cls-1" x="273.61" y="228.26" width="62.43" height="203.52"/><rect class="cls-2" x="336.04" y="192.74" width="294.55" height="239.05"/><rect class="cls-3" x="369.32" width="273.71" height="192.74"/><polygon class="cls-1" points="630.59 276.92 520.65 276.92 520.65 185.78 659.63 185.78 659.63 221.8 630.59 276.92"/><rect class="cls-4" x="498.27" y="185.78" width="38.28" height="91.14"/><rect class="cls-5" x="389.97" y="106.7" width="117.59" height="121.57"/><rect class="cls-6" x="474.32" y="106.7" width="52.55" height="121.57"/><rect class="cls-6" x="14.71" y="185.78" width="459.62" height="42.48"/><rect class="cls-1" x="369.32" width="273.71" height="106.23"/><rect class="cls-7" x="387.3" y="20.09" width="237.75" height="66.07"/><rect class="cls-8" x="614.09" y="20.09" width="10.97" height="66.07"/><ellipse class="cls-9" cx="417.67" cy="53.12" rx="11.06" ry="12.36"/><ellipse class="cls-9" cx="461.92" cy="53.12" rx="11.06" ry="12.36"/><ellipse class="cls-9" cx="506.18" cy="53.12" rx="11.06" ry="12.36"/><ellipse class="cls-9" cx="550.43" cy="53.12" rx="11.06" ry="12.36"/><ellipse class="cls-9" cx="594.68" cy="53.12" rx="11.06" ry="12.36"/><rect class="cls-4" x="306.89" width="62.43" height="185.78"/><rect class="cls-10" x="401.03" y="119.05" width="59.46" height="66.73"/><rect class="cls-5" y="185.78" width="67.76" height="42.48"/><path class="cls-11" d="M188.07,168H43.56c-8.78,0-15.9,7.95-15.9,17.76H188.07Z"/><path class="cls-12" d="M460.5,168H120.31c-8.78,0-15.9,7.95-15.9,17.76H460.5Z"/><polygon class="cls-13" points="516.43 20.09 457.29 86.15 387.3 86.15 387.3 20.09 516.43 20.09"/><polygon class="cls-13" points="625.06 32.12 625.06 86.15 576.68 86.15 625.06 32.12"/><path class="cls-5" d="M559.37,118.59h20v60.24h-20c-14.89,0-27-13.48-27-30.12h0C532.4,132.08,544.48,118.59,559.37,118.59Z"/><ellipse class="cls-6" cx="579.38" cy="148.71" rx="26.97" ry="30.12"/><ellipse class="cls-5" cx="579.38" cy="148.71" rx="13.18" ry="14.73"/><ellipse class="cls-6" cx="463.26" cy="256.84" rx="9.68" ry="10.81"/><ellipse class="cls-6" cx="391.35" cy="256.84" rx="9.68" ry="10.81"/><ellipse class="cls-6" cx="427.31" cy="256.84" rx="9.68" ry="10.81"/><rect class="cls-6" x="424.54" y="293.14" width="26.97" height="69.51"/><rect class="cls-10" x="417.63" y="293.14" width="6.91" height="69.51"/><rect class="cls-10" x="432.84" y="302.41" width="10.37" height="50.97"/><polygon class="cls-4" points="477.95 363.24 472.08 369.79 432.84 325.95 432.84 312.85 477.95 363.24"/><ellipse class="cls-9" cx="475.02" cy="366.51" rx="9.68" ry="10.81"/><rect class="cls-6" x="111.32" y="228.26" width="13.14" height="203.52"/><rect class="cls-6" x="42.18" y="228.26" width="13.14" height="203.52"/><rect class="cls-6" x="55.32" y="383.5" width="56.01" height="13.13"/><polygon class="cls-5" points="55.32 228.26 42.18 228.26 42.18 285.42 55.32 278.47 55.32 228.26"/><polygon class="cls-5" points="124.46 228.26 111.32 228.26 111.32 255.29 124.46 248.34 124.46 228.26"/><polygon class="cls-4" points="336.04 256.07 273.61 287.73 273.61 228.26 336.04 228.26 336.04 256.07"/><path class="cls-1" d="M56.36,446.84H41.14v-6.56c0-4.69,3.41-8.49,7.61-8.49h0c4.2,0,7.61,3.8,7.61,8.49Z"/><path class="cls-1" d="M125.5,446.84H110.29v-6.56c0-4.69,3.4-8.49,7.6-8.49h0c4.2,0,7.61,3.8,7.61,8.49Z"/><path class="cls-1" d="M293.17,446.84H278v-6.56c0-4.69,3.4-8.49,7.6-8.49h0c4.21,0,7.61,3.8,7.61,8.49Z"/><path class="cls-1" d="M353.32,446.84H338.11v-6.56c0-4.69,3.41-8.49,7.61-8.49h0c4.2,0,7.6,3.8,7.6,8.49Z"/><path class="cls-1" d="M568.5,446.84H553.29v-6.56c0-4.69,3.4-8.49,7.6-8.49h0c4.21,0,7.61,3.8,7.61,8.49Z"/><path class="cls-1" d="M628.65,446.84H613.44v-6.56c0-4.69,3.41-8.49,7.61-8.49h0c4.2,0,7.6,3.8,7.6,8.49Z"/><rect class="cls-11" x="453.58" y="168.02" width="6.91" height="17.76"/><rect class="cls-4" x="536.55" y="185.78" width="132.06" height="13.9"/><rect class="cls-10" x="388.59" y="243.71" width="5.53" height="26.26"/><polygon class="cls-10" points="417.04 263.94 433.66 245.37 437.57 249.74 420.95 268.31 417.04 263.94"/><polygon class="cls-10" points="456.91 245.37 473.53 263.93 469.62 268.3 452.99 249.73 456.91 245.37"/></g></g></svg>